# Tiled2Unity generated file. Do not modify by hand.
# Wavefront file for 'Base_mesh_0004.obj'

# Vertices (Count = 116)
v -2.24 -1.92 0
v -2.56 -1.92 0
v -2.56 -1.6 0
v -2.24 -1.6 0
v -2.56 -1.92 0
v -2.88 -1.92 0
v -2.88 -1.6 0
v -2.56 -1.6 0
v -2.88 -1.92 0
v -3.2 -1.92 0
v -3.2 -1.6 0
v -2.88 -1.6 0
v -2.24 -2.24 0
v -2.56 -2.24 0
v -2.56 -1.92 0
v -2.24 -1.92 0
v -2.56 -2.24 0
v -2.88 -2.24 0
v -2.88 -1.92 0
v -2.56 -1.92 0
v -2.88 -2.24 0
v -3.2 -2.24 0
v -3.2 -1.92 0
v -2.88 -1.92 0
v -2.24 -2.56 0
v -2.56 -2.56 0
v -2.56 -2.24 0
v -2.24 -2.24 0
v -2.56 -2.56 0
v -2.88 -2.56 0
v -2.88 -2.24 0
v -2.56 -2.24 0
v -2.88 -2.56 0
v -3.2 -2.56 0
v -3.2 -2.24 0
v -2.88 -2.24 0
v -2.56 -2.88 0
v -2.88 -2.88 0
v -2.88 -2.56 0
v -2.56 -2.56 0
v -2.56 -3.2 0
v -2.88 -3.2 0
v -2.88 -2.88 0
v -2.56 -2.88 0
v -2.24 -3.52 0
v -2.56 -3.52 0
v -2.56 -3.2 0
v -2.24 -3.2 0
v -2.56 -3.52 0
v -2.88 -3.52 0
v -2.88 -3.2 0
v -2.56 -3.2 0
v -2.56 -3.84 0
v -2.88 -3.84 0
v -2.88 -3.52 0
v -2.56 -3.52 0
v -2.56 -4.16 0
v -2.88 -4.16 0
v -2.88 -3.84 0
v -2.56 -3.84 0
v -1.6 -4.48 0
v -1.92 -4.48 0
v -1.92 -4.16 0
v -1.6 -4.16 0
v -1.92 -4.48 0
v -2.24 -4.48 0
v -2.24 -4.16 0
v -1.92 -4.16 0
v -2.24 -4.48 0
v -2.56 -4.48 0
v -2.56 -4.16 0
v -2.24 -4.16 0
v -2.56 -4.48 0
v -2.88 -4.48 0
v -2.88 -4.16 0
v -2.56 -4.16 0
v -1.28 -4.8 0
v -1.6 -4.8 0
v -1.6 -4.48 0
v -1.28 -4.48 0
v -1.6 -4.8 0
v -1.92 -4.8 0
v -1.92 -4.48 0
v -1.6 -4.48 0
v -2.24 -4.8 0
v -2.56 -4.8 0
v -2.56 -4.48 0
v -2.24 -4.48 0
v -2.56 -4.8 0
v -2.88 -4.8 0
v -2.88 -4.48 0
v -2.56 -4.48 0
v -0.64 -5.12 0
v -0.96 -5.12 0
v -0.96 -4.8 0
v -0.64 -4.8 0
v -1.28 -5.12 0
v -1.6 -5.12 0
v -1.6 -4.8 0
v -1.28 -4.8 0
v -1.6 -5.12 0
v -1.92 -5.12 0
v -1.92 -4.8 0
v -1.6 -4.8 0
v -1.92 -5.12 0
v -2.24 -5.12 0
v -2.24 -4.8 0
v -1.92 -4.8 0
v -2.24 -5.12 0
v -2.56 -5.12 0
v -2.56 -4.8 0
v -2.24 -4.8 0
v -2.56 -5.12 0
v -2.88 -5.12 0
v -2.88 -4.8 0
v -2.56 -4.8 0

# Texture cooridinates (Count = 80)
vt 0.0001220703 0.9546675
vt 0.08321127 0.9546675
vt 0.08321127 0.9998779
vt 0.0001220703 0.9998779
vt 0.08345541 0.9546675
vt 0.1665446 0.9546675
vt 0.1665446 0.9998779
vt 0.08345541 0.9998779
vt 0.1667887 0.9546675
vt 0.2498779 0.9546675
vt 0.2498779 0.9998779
vt 0.1667887 0.9998779
vt 0.0001220703 0.9092129
vt 0.08321127 0.9092129
vt 0.08321127 0.9544234
vt 0.0001220703 0.9544234
vt 0.08345541 0.9092129
vt 0.1665446 0.9092129
vt 0.1665446 0.9544234
vt 0.08345541 0.9544234
vt 0.1667887 0.9092129
vt 0.2498779 0.9092129
vt 0.2498779 0.9544234
vt 0.1667887 0.9544234
vt 0.0001220703 0.8637584
vt 0.08321127 0.8637584
vt 0.08321127 0.9089688
vt 0.0001220703 0.9089688
vt 0.08345541 0.8637584
vt 0.1665446 0.8637584
vt 0.1665446 0.9089688
vt 0.08345541 0.9089688
vt 0.1667887 0.8637584
vt 0.2498779 0.8637584
vt 0.2498779 0.9089688
vt 0.1667887 0.9089688
vt 0.0001220703 0.7728493
vt 0.08321127 0.7728493
vt 0.08321127 0.8180597
vt 0.0001220703 0.8180597
vt 0.6667888 0.8637584
vt 0.7498779 0.8637584
vt 0.7498779 0.9089688
vt 0.6667888 0.9089688
vt 0.0001220703 0.8183039
vt 0.08321127 0.8183039
vt 0.08321127 0.8635143
vt 0.0001220703 0.8635143
vt 0.0001220703 0.4546675
vt 0.08321127 0.4546675
vt 0.08321127 0.4998779
vt 0.0001220703 0.4998779
vt 0.3334554 0.7273948
vt 0.4165446 0.7273948
vt 0.4165446 0.7726052
vt 0.3334554 0.7726052
vt 0.1667887 0.4546675
vt 0.2498779 0.4546675
vt 0.2498779 0.4998779
vt 0.1667887 0.4998779
vt 0.0001220703 0.409213
vt 0.08321127 0.409213
vt 0.08321127 0.4544234
vt 0.0001220703 0.4544234
vt 0.1667887 0.409213
vt 0.2498779 0.409213
vt 0.2498779 0.4544234
vt 0.1667887 0.4544234
vt 0.1667887 0.3637584
vt 0.2498779 0.3637584
vt 0.2498779 0.4089689
vt 0.1667887 0.4089689
vt 0.0001220703 0.3637584
vt 0.08321127 0.3637584
vt 0.08321127 0.4089689
vt 0.0001220703 0.4089689
vt 0.2501221 0.7273948
vt 0.3332113 0.7273948
vt 0.3332113 0.7726052
vt 0.2501221 0.7726052

# Normal
vn 0 0 -1

# Mesh description
g Base_mesh_0004

# Faces
f 1/1/1 2/2/1 3/3/1 4/4/1
f 5/5/1 6/6/1 7/7/1 8/8/1
f 9/9/1 10/10/1 11/11/1 12/12/1
f 13/13/1 14/14/1 15/15/1 16/16/1
f 17/17/1 18/18/1 19/19/1 20/20/1
f 21/21/1 22/22/1 23/23/1 24/24/1
f 25/25/1 26/26/1 27/27/1 28/28/1
f 29/29/1 30/30/1 31/31/1 32/32/1
f 33/33/1 34/34/1 35/35/1 36/36/1
f 37/37/1 38/38/1 39/39/1 40/40/1
f 41/37/1 42/38/1 43/39/1 44/40/1
f 45/41/1 46/42/1 47/43/1 48/44/1
f 49/45/1 50/46/1 51/47/1 52/48/1
f 53/37/1 54/38/1 55/39/1 56/40/1
f 57/37/1 58/38/1 59/39/1 60/40/1
f 61/49/1 62/50/1 63/51/1 64/52/1
f 65/53/1 66/54/1 67/55/1 68/56/1
f 69/57/1 70/58/1 71/59/1 72/60/1
f 73/37/1 74/38/1 75/39/1 76/40/1
f 77/57/1 78/58/1 79/59/1 80/60/1
f 81/61/1 82/62/1 83/63/1 84/64/1
f 85/65/1 86/66/1 87/67/1 88/68/1
f 89/37/1 90/38/1 91/39/1 92/40/1
f 93/53/1 94/54/1 95/55/1 96/56/1
f 97/69/1 98/70/1 99/71/1 100/72/1
f 101/73/1 102/74/1 103/75/1 104/76/1
f 105/77/1 106/78/1 107/79/1 108/80/1
f 109/69/1 110/70/1 111/71/1 112/72/1
f 113/37/1 114/38/1 115/39/1 116/40/1

