# Tiled2Unity generated file. Do not modify by hand.
# Wavefront file for 'Plat_short_mesh_0001.obj'

# Vertices (Count = 8)
v 0 -0.32 0
v -0.32 -0.32 0
v -0.32 0 0
v 0 0 0
v -0.32 -0.32 0
v -0.64 -0.32 0
v -0.64 0 0
v -0.32 0 0

# Texture cooridinates (Count = 8)
vt 0.2667888 0.8501221
vt 0.3332113 0.8501221
vt 0.3332113 0.8998779
vt 0.2667888 0.8998779
vt 0.4001221 0.8501221
vt 0.4665446 0.8501221
vt 0.4665446 0.8998779
vt 0.4001221 0.8998779

# Normal
vn 0 0 -1

# Mesh description
g Plat_short_mesh_0001

# Faces
f 1/1/1 2/2/1 3/3/1 4/4/1
f 5/5/1 6/6/1 7/7/1 8/8/1

